<svg xmlns="http://www.w3.org/2000/svg" viewBox="0 0 1396 1154" fill="#155DFC"><path fill-rule="evenodd" d="M869 4c-2 .5-9.8 1.4-17.5 2s-15.4 1.5-17 2-6.4 1.2-10.5 1.5-9.3 1.1-11.5 1.7l-13 2.8a194 194 0 0 0-28.5 7.5c-5 1.3-19.5 5.7-21.5 6.5-1.1.5-4 1.4-6.5 2a74 74 0 0 0-20 7.5c-1.4.4-3.9 1.3-5.5 2l-9.5 4a493 493 0 0 0-91.8 52.6 16 16 0 0 1-4 2.9c-.4 0-2.4 1.5-4.5 3.3A539 539 0 0 1 588 118a643 643 0 0 0-51 49.6l-5.7 7.1c-1.6 1.6-19.5 23.7-24 29.5-3.1 3.9-7.7 10.6-15.8 23.2-1.8 2.8-6.7 10.8-10.9 18L472 260a857 857 0 0 0-23 47.6c0 .7-1.9 6-5 13.9-.5 1.1-1.4 3.8-2 6s-1.6 4.4-2 5a776 776 0 0 0-15.6 49c-2.2 9.3-4.1 20.4-6 35-.7 6.6-1.8 13.8-2.3 16-1.1 4.6-3.1 29-3.1 38.3 0 3.4-.5 9.3-1.2 13-1 5.6-.8 11.4.6 31.3 2.5 34.7 4.3 48.6 9.5 74.9 1.2 5.8 2.6 12.8 3 15.5a162 162 0 0 0 8.1 27.2 384 384 0 0 0 13 34.8c0 .6 3 7.4 5.6 12.9a169 169 0 0 0 12.3 26.1 169 169 0 0 1 5.6 10.5c.9 1.9 2.2 4.1 3 5a443.3 443.3 0 0 0 28.7 45 534 534 0 0 0 49.4 58.7 575.8 575.8 0 0 0 87.3 71.8c3.7 2.5 7.3 4.5 8.2 4.5 1 0 3.9-1.7 6.6-3.8l7.4-5.4a343 343 0 0 0 55-52.8 292 292 0 0 0 12.3-17.5L735 811c1-1.4 2.5-4 3.4-6l5.8-10.5a80 80 0 0 0 9.7-21.3c-.2-.9-2.9-3.1-6-5.1a460 460 0 0 1-48.8-35.7 329 329 0 0 1-67-80.9c-6-9-11.8-20-15.5-29.5-2.7-7-5-12.6-8-19.5-.8-1.6-2-5-2.6-7.5a30 30 0 0 0-2-5.5c-.3-.5-1.2-3.5-1.9-6.5s-1.6-6-2-6.5c-1.2-1.5-7-33-9.5-51a376 376 0 0 1 7-108.5 69 69 0 0 1 4.5-15.5 66 66 0 0 1 2.6-7.2 127 127 0 0 1 8-21c.8-1.7 1.4-3.4 1.4-3.9s3.3-7.3 7.4-15.3c9.6-18.8 9.3-18.4 14.6-26.6l7.3-11.5q5.5-8.8 10.5-14.5l12.4-14.5c14-16.8 27.7-29.7 45.2-42.8 4-2.9 8-6 9.2-7a413 413 0 0 1 43-26.2c.3 0 4.8-2 10-4.5a159 159 0 0 1 23.4-9.3l11.5-3.7a388 388 0 0 1 40-10.5c2.2-.4 8.3-1.1 13.5-1.5s12.3-1 15.8-1.6c8.4-1.3 46.7-1.2 54 0 3.1.6 10.4 1.8 16.2 2.6s14.5 2.3 19.5 3.4a206 206 0 0 1 25 6l5.5 2.1 5.5 2c4.4 1.9 15.4 6.3 21.5 8.6a219 219 0 0 1 24.2 11.2l9.8 5.4c1.4.5 14.1 9.3 32 22 9.7 7 31.7 27.4 43.8 40.8 8.2 9 17.7 21.4 31.3 40.8 4 5.8 13.5 23 17 30.7l7.8 17.6a34 34 0 0 1 2.1 5.2 146.8 146.8 0 0 1 9.7 28.2 970 970 0 0 1 10.5 49.5 653 653 0 0 1-.1 74c-4 26-6.5 36.1-14.7 61.5a363 363 0 0 1-24.4 55.1c0 .8-12.7 22-14.6 24.3l-5.6 7.1-10.3 13.4a355 355 0 0 1-61.6 58.1l-6 4-6.4 4L1046 771a240 240 0 0 1-27.6 13.1q-.6.8-2 .9c-.8 0-3.6 1-6.2 2l-7.9 3.5c-2.5 1.1-3.4 2.3-4.3 5.7-.5 2.4-1.6 6.3-2.4 8.8s-1.8 6.8-2.1 9.5a22 22 0 0 1-1.4 6c-.4.5-1.3 3.7-2 7a33 33 0 0 1-2 7c-.5.5-2.3 5.5-4.1 11a235 235 0 0 1-6 17c0 .3-.9 2.6-2 5l-4 9c-1.1 2.4-2 4.8-2 5.2a606 606 0 0 1-23 44.9c0 .8-11.2 17.9-27.4 41.7-4.7 6.8-5.7 9-4.8 10 2.2 2 57.7.1 62.1-2.3 1-.5 6.7-1.4 12.7-2s11.6-1.6 12.4-2 4-1 7-1.4 8.6-1.6 12.5-2.7l12.5-3.5a344 344 0 0 0 50.7-17.4q2-.1 20-8.6c3.8-1.9 9-4 11.2-4.9 10.2-3.5 33-16.9 58.8-34.2a420 420 0 0 0 72.8-60.7 409 409 0 0 0 55.4-65.1 340 340 0 0 0 17.5-26.4c.7-.9 2.5-3.6 3.8-6.1l7.8-13.5c2.9-5 6.7-12.1 8.5-16l8.7-18.5a308 308 0 0 0 11-25.5c1.7-4.3 12.9-38.7 14.2-44.2l3.6-13.8c1.2-4.4 3-12 4-17l2.9-14a570 570 0 0 0 6.2-54.5c1.8-25 2-37 1-44-.6-3.5-1.3-13.5-1.6-22.1a274 274 0 0 0-9-62l-3.4-15.9-3.4-14.6c-.8-3.4-3-11-5-17l-5.3-15.9c-.9-2.7-2.6-7.2-3.9-10a112 112 0 0 1-7.9-18.7c-.8-1.4-2-4.3-2.6-6.3a602 602 0 0 0-28.3-54.7A632 632 0 0 0 1305 217a307 307 0 0 0-21.5-30 571 571 0 0 0-70.5-71.5c-1.6-1.9-17-13.6-25.6-19.5-34.2-23.3-40.3-27-62.3-38.2L1106 48c-2-1-5.7-2.9-8.5-4l-10.3-4.6c-2.8-1.3-8.2-3.3-12-4.5a60 60 0 0 1-7.7-2.9c-1.3-.9-14.9-5.6-20-7l-11.5-3c-11-3.1-22.5-5.9-30.8-7.5-4-.8-8.8-1.9-10.5-2.5-1.8-.6-7.7-1.7-13.2-2.5-5.5-.7-12.1-1.8-14.7-2.4-12.3-2.7-89.6-5-97.8-3M460 157c-12.4.4-25.4 1.2-29 1.8-6.1 1-12.5 2-26.5 4-10.8 1.7-23 4-27 5.1a939 939 0 0 0-53.2 16.6 173.4 173.4 0 0 0-24.7 9.4 428 428 0 0 0-54.6 28.1c-5.2 3.4-29 18.7-33.7 21.5-1.1.7-3.3 2.4-4.7 3.6s-6.5 5.2-11.2 8.8a594 594 0 0 0-52.9 46.5 664 664 0 0 0-24.2 27c-8 9.7-32.3 42.2-32.3 43.2 0 .5-1.8 3.6-4.1 6.8A413 413 0 0 0 53.4 430a258 258 0 0 0-17.5 40.5l-4 11-2 6.5c-.6 2.5-1.4 5-1.9 5.5s-1.3 3.5-2 6.5c-.8 3-1.7 6-2 6.5-.5.6-1.3 3.7-2 7s-1.6 6.5-2 7a151 151 0 0 0-6 23.6 72 72 0 0 1-2.4 9.7c-.6 1-1.5 8.4-5.1 42.7A325 325 0 0 0 5 621c0 6.3-.5 15.3-1 20s-.3 13 .1 18.5 1.3 18.2 1.9 28.1 1.4 20.1 2 22.5l2.5 12.9a596 596 0 0 0 11.8 53.5c2.7 10.6 4.9 18 5.7 19 .4.5 1 2.5 1.3 4.3s1.5 5.1 2.6 7.5A653.8 653.8 0 0 0 70 889c6 10.7 29.5 46.7 37.9 57.7a316 316 0 0 0 25 29.8c24.6 27.1 38.6 40.4 63.3 60 29.5 23.4 39.1 30.3 50.8 36.8l20.5 11.7a579 579 0 0 0 71.7 34.3A356 356 0 0 0 384 1134c15.3 4.5 34.5 8.4 56 11.5 5.2.7 11.8 1.8 14.5 2.4 10.2 2.2 27.8 3.1 60.4 3q33.5 0 44.6-1.4c17.5-2.2 32.9-4.5 34.5-5.1.8-.4 5.5-1.5 10.5-2.4 19.8-4 25-5.2 26-6 .5-.4 3.5-1.3 6.5-2 3-.5 7.3-1.7 9.5-2.5l10-3.1c6-1.8 18.2-6.3 24.2-9a211.5 211.5 0 0 0 29.3-13.1l22-10.6c2.5-1.2 4.9-2.8 5.3-3.4q.8-1.2 1.7-1.3c1.3 0 14.6-8.1 27.3-16.7 6-4 11.1-7.3 11.4-7.3.7 0 13.4-9 18.2-13 21.9-18.1 37.7-32 42.7-37.2l17-18.3c15-16 40.2-48.4 49.4-63.6l17-28.4c6-9.6 16.5-30.7 22-44.1 8.3-19.9 9.2-22 12.1-30.9l3.8-10.6c.5-.8 1.4-4.2 2.1-7.4a42 42 0 0 1 2-7.4c1-1.7 3-9.1 5.6-20.1l3-11.5c1.7-5.3 2.3-9 4.8-25.5l2.5-16.5c.6-3.3 1.5-12 2-19.5 3-38.7 3.1-43.8 2.1-59.5-2.1-34-3.1-47.2-4-51.5l-2.4-14a163 163 0 0 0-5.6-26.5c-.4-.5-1.3-4.1-2-8s-1.8-9.2-2.6-12l-2.9-10a265 265 0 0 0-10-30 50 50 0 0 0-2.6-7.2c-1-2.3-1.9-4.5-1.9-4.8a53 53 0 0 0-2.6-6.3c-4.4-9.6-5.4-12-5.4-12.6 0-2.8-16.3-34.8-25-49.3-2.2-3.6-4-6.7-4-7s-.8-1.6-1.9-3L900.4 395a518 518 0 0 0-55.4-70.5c-5.2-6-15.6-16.1-23-22.7l-20-17.7c-8.4-7.6-15-12.7-25.8-20.3-14.8-10.4-15.4-10.8-18-10.8-1.3 0-7 3-12.8 7-12.5 8.3-10.5 6.8-23.4 18a265 265 0 0 0-53.6 59.7L660 350c-2.7 2.4-16 27-16 29.6 0 .8 2.4 3 5.3 4.9 2.8 1.9 9.3 6.4 14.2 10l12.3 8.7c7.6 5.3 17.5 14.3 34.1 30.9 18.4 18.4 24.6 25.3 29.6 32.9 3 4.6 5.5 8 13 18a270 270 0 0 1 25.9 48.2c5.2 11.3 7.3 16 8.1 18.8.4 1.4 1.1 3 1.6 3.6.5.5 1.5 3.7 2.3 7s2.4 9 3.6 12.9c2 6.6 3.1 11.4 8 33 3.9 16.5 4 18.8 4.7 52.2.5 32.1-.2 48.5-2.7 60.3a592 592 0 0 1-7.5 31.5l-4.6 14.5a112 112 0 0 1-5.4 15c-1 3.4-4 10-8.5 19l-4.5 10c-1 3-9.5 17.8-15.3 26.5a484 484 0 0 1-38 46.9 316 316 0 0 1-67.7 53.1c-8 5.2-31 16.5-33.5 16.5-.7 0-2.6.6-4.3 1.4-8.4 3.5-26.3 9.4-34.2 11.2a47.3 47.3 0 0 1-13.6 3.8l-13.4 2.5a375 375 0 0 1-65.8 2.2c-12-.7-23.7-1.6-26-2.1a848 848 0 0 1-54.2-13.5c-3.3-.8-7.3-2.2-8.8-3s-3.4-1.5-4-1.5-3-.9-5.2-2c-2-1-5.2-2.4-7-3-1.7-.5-5.5-2.3-8.5-4l-19-9.9a235 235 0 0 1-48.5-32.6L296 895c-9-7-37.9-37.1-45.5-47.5-5.8-7.9-27-40.1-29.4-44.5a426 426 0 0 1-19.1-40.5 284.1 284.1 0 0 1-16-60c-1-6-2.3-13-2.9-15.5-2.7-12.7-2-72.7 1-86 .5-2.5 1.6-8.1 2.3-12.5 2.4-13.2 3.6-18.7 5.6-25l4-13a339 339 0 0 1 16.7-41.5c2.5-5.6 18.3-33 22.7-39.4a390 390 0 0 1 33-41.4 333 333 0 0 1 59.6-48.8l9.5-5.6a281 281 0 0 1 55.9-25.4c7.9-2.9 8-2.9 10.2-8.4a375 375 0 0 0 6.4-18.5 377 377 0 0 1 14.6-38.1c1.3-2.8 2.4-5.5 2.4-6a443 443 0 0 1 24-46c0-.3 1.3-2.5 2.8-4.8s3-4.8 3.4-5.6c1.7-4.1 34.1-48 42.3-57.4 3-3.4 3.2-6.3.8-7-2.1-.5-10-.4-40.3.5"/></svg>
